<svg xmlns="http://www.w3.org/2000/svg" width="1000" height="620" viewBox="0 0 1000 620"><rect width="100%" height="100%" fill="white"/><text x="500.0" y="38" text-anchor="middle" font-family="DejaVu Sans, sans-serif" font-size="27" font-weight="bold">Disocclusion Error Along the Camera Path</text><line x1="110" y1="505.0" x2="930" y2="505.0" stroke="#dddddd"/><text x="95" y="511.0" text-anchor="end" font-family="DejaVu Sans, sans-serif" font-size="16" font-weight="normal">0.00</text><line x1="110" y1="443.5714285714286" x2="930" y2="443.5714285714286" stroke="#dddddd"/><text x="95" y="449.5714285714286" text-anchor="end" font-family="DejaVu Sans, sans-serif" font-size="16" font-weight="normal">0.02</text><line x1="110" y1="382.14285714285717" x2="930" y2="382.14285714285717" stroke="#dddddd"/><text x="95" y="388.14285714285717" text-anchor="end" font-family="DejaVu Sans, sans-serif" font-size="16" font-weight="normal">0.04</text><line x1="110" y1="320.7142857142858" x2="930" y2="320.7142857142858" stroke="#dddddd"/><text x="95" y="326.7142857142858" text-anchor="end" font-family="DejaVu Sans, sans-serif" font-size="16" font-weight="normal">0.06</text><line x1="110" y1="259.28571428571433" x2="930" y2="259.28571428571433" stroke="#dddddd"/><text x="95" y="265.28571428571433" text-anchor="end" font-family="DejaVu Sans, sans-serif" font-size="16" font-weight="normal">0.08</text><line x1="110" y1="197.85714285714283" x2="930" y2="197.85714285714283" stroke="#dddddd"/><text x="95" y="203.85714285714283" text-anchor="end" font-family="DejaVu Sans, sans-serif" font-size="16" font-weight="normal">0.10</text><line x1="110" y1="136.4285714285715" x2="930" y2="136.4285714285715" stroke="#dddddd"/><text x="95" y="142.4285714285715" text-anchor="end" font-family="DejaVu Sans, sans-serif" font-size="16" font-weight="normal">0.12</text><line x1="110" y1="75.0" x2="930" y2="75.0" stroke="#dddddd"/><text x="95" y="81.0" text-anchor="end" font-family="DejaVu Sans, sans-serif" font-size="16" font-weight="normal">0.14</text><polyline points="110.0,383.87948900461197 201.11111111111111,401.2757626814502 292.22222222222223,396.68637756790434 383.3333333333333,357.3130082658359 474.44444444444446,416.7957386321255 565.5555555555555,387.43415680314814 656.6666666666666,390.91821853603636 747.7777777777778,376.3881451636553 838.8888888888889,379.03290000345027 930.0,376.71010140861785" fill="none" stroke="#4C78A8" stroke-width="4"/><circle cx="110.0" cy="383.87948900461197" r="5" fill="#4C78A8"/><circle cx="201.11111111111111" cy="401.2757626814502" r="5" fill="#4C78A8"/><circle cx="292.22222222222223" cy="396.68637756790434" r="5" fill="#4C78A8"/><circle cx="383.3333333333333" cy="357.3130082658359" r="5" fill="#4C78A8"/><circle cx="474.44444444444446" cy="416.7957386321255" r="5" fill="#4C78A8"/><circle cx="565.5555555555555" cy="387.43415680314814" r="5" fill="#4C78A8"/><circle cx="656.6666666666666" cy="390.91821853603636" r="5" fill="#4C78A8"/><circle cx="747.7777777777778" cy="376.3881451636553" r="5" fill="#4C78A8"/><circle cx="838.8888888888889" cy="379.03290000345027" r="5" fill="#4C78A8"/><circle cx="930.0" cy="376.71010140861785" r="5" fill="#4C78A8"/><line x1="110" y1="555" x2="145" y2="555" stroke="#4C78A8" stroke-width="5"/><text x="155" y="561" text-anchor="start" font-family="DejaVu Sans, sans-serif" font-size="16" font-weight="normal">GatherOnly + Robust</text><polyline points="110.0,224.95164273040635 201.11111111111111,265.21620365125796 292.22222222222223,270.79022003071657 383.3333333333333,89.15492389883318 474.44444444444446,253.66659460323197 565.5555555555555,198.9289618815695 656.6666666666666,217.19638543469569 747.7777777777778,188.7898402341775 838.8888888888889,197.5266531961305 930.0,204.7603080102376" fill="none" stroke="#F58518" stroke-width="4"/><circle cx="110.0" cy="224.95164273040635" r="5" fill="#F58518"/><circle cx="201.11111111111111" cy="265.21620365125796" r="5" fill="#F58518"/><circle cx="292.22222222222223" cy="270.79022003071657" r="5" fill="#F58518"/><circle cx="383.3333333333333" cy="89.15492389883318" r="5" fill="#F58518"/><circle cx="474.44444444444446" cy="253.66659460323197" r="5" fill="#F58518"/><circle cx="565.5555555555555" cy="198.9289618815695" r="5" fill="#F58518"/><circle cx="656.6666666666666" cy="217.19638543469569" r="5" fill="#F58518"/><circle cx="747.7777777777778" cy="188.7898402341775" r="5" fill="#F58518"/><circle cx="838.8888888888889" cy="197.5266531961305" r="5" fill="#F58518"/><circle cx="930.0" cy="204.7603080102376" r="5" fill="#F58518"/><line x1="375" y1="555" x2="410" y2="555" stroke="#F58518" stroke-width="5"/><text x="420" y="561" text-anchor="start" font-family="DejaVu Sans, sans-serif" font-size="16" font-weight="normal">ScatterOnly</text><polyline points="110.0,344.9033388921193 201.11111111111111,366.04963129120216 292.22222222222223,367.6432450222118 383.3333333333333,281.29462863717765 474.44444444444446,370.2950664183923 565.5555555555555,341.0292366572789 656.6666666666666,348.0208916642836 747.7777777777778,336.0291148189988 838.8888888888889,338.39363309953893 930.0,339.03962116156305" fill="none" stroke="#54A24B" stroke-width="4"/><circle cx="110.0" cy="344.9033388921193" r="5" fill="#54A24B"/><circle cx="201.11111111111111" cy="366.04963129120216" r="5" fill="#54A24B"/><circle cx="292.22222222222223" cy="367.6432450222118" r="5" fill="#54A24B"/><circle cx="383.3333333333333" cy="281.29462863717765" r="5" fill="#54A24B"/><circle cx="474.44444444444446" cy="370.2950664183923" r="5" fill="#54A24B"/><circle cx="565.5555555555555" cy="341.0292366572789" r="5" fill="#54A24B"/><circle cx="656.6666666666666" cy="348.0208916642836" r="5" fill="#54A24B"/><circle cx="747.7777777777778" cy="336.0291148189988" r="5" fill="#54A24B"/><circle cx="838.8888888888889" cy="338.39363309953893" r="5" fill="#54A24B"/><circle cx="930.0" cy="339.03962116156305" r="5" fill="#54A24B"/><line x1="640" y1="555" x2="675" y2="555" stroke="#54A24B" stroke-width="5"/><text x="685" y="561" text-anchor="start" font-family="DejaVu Sans, sans-serif" font-size="16" font-weight="normal">ScatterBackup</text><text x="110.0" y="533" text-anchor="middle" font-family="DejaVu Sans, sans-serif" font-size="15" font-weight="normal">8</text><text x="201.11111111111111" y="533" text-anchor="middle" font-family="DejaVu Sans, sans-serif" font-size="15" font-weight="normal">17</text><text x="292.22222222222223" y="533" text-anchor="middle" font-family="DejaVu Sans, sans-serif" font-size="15" font-weight="normal">26</text><text x="383.3333333333333" y="533" text-anchor="middle" font-family="DejaVu Sans, sans-serif" font-size="15" font-weight="normal">35</text><text x="474.44444444444446" y="533" text-anchor="middle" font-family="DejaVu Sans, sans-serif" font-size="15" font-weight="normal">44</text><text x="565.5555555555555" y="533" text-anchor="middle" font-family="DejaVu Sans, sans-serif" font-size="15" font-weight="normal">53</text><text x="656.6666666666666" y="533" text-anchor="middle" font-family="DejaVu Sans, sans-serif" font-size="15" font-weight="normal">62</text><text x="747.7777777777778" y="533" text-anchor="middle" font-family="DejaVu Sans, sans-serif" font-size="15" font-weight="normal">71</text><text x="838.8888888888889" y="533" text-anchor="middle" font-family="DejaVu Sans, sans-serif" font-size="15" font-weight="normal">80</text><text x="930.0" y="533" text-anchor="middle" font-family="DejaVu Sans, sans-serif" font-size="15" font-weight="normal">89</text><text x="500.0" y="598" text-anchor="middle" font-family="DejaVu Sans, sans-serif" font-size="18" font-weight="bold">Camera-path frame</text><text x="30" y="290.0" text-anchor="middle" transform="rotate(-90 30 290.0)" font-family="DejaVu Sans, sans-serif" font-size="18" font-weight="bold">Masked log-luminance MAE</text></svg>