<svg xmlns="http://www.w3.org/2000/svg" width="1000" height="620" viewBox="0 0 1000 620"><rect width="100%" height="100%" fill="white"/><text x="500.0" y="42" text-anchor="middle" font-family="DejaVu Sans, sans-serif" font-size="27" font-weight="bold">Error on Newly Revealed Pixels</text><line x1="110" y1="495.0" x2="930" y2="495.0" stroke="#dddddd"/><text x="95" y="501.0" text-anchor="end" font-family="DejaVu Sans, sans-serif" font-size="16" font-weight="normal">0.00</text><line x1="110" y1="413.0" x2="930" y2="413.0" stroke="#dddddd"/><text x="95" y="419.0" text-anchor="end" font-family="DejaVu Sans, sans-serif" font-size="16" font-weight="normal">0.02</text><line x1="110" y1="331.0" x2="930" y2="331.0" stroke="#dddddd"/><text x="95" y="337.0" text-anchor="end" font-family="DejaVu Sans, sans-serif" font-size="16" font-weight="normal">0.04</text><line x1="110" y1="249.0" x2="930" y2="249.0" stroke="#dddddd"/><text x="95" y="255.0" text-anchor="end" font-family="DejaVu Sans, sans-serif" font-size="16" font-weight="normal">0.07</text><line x1="110" y1="167.00000000000003" x2="930" y2="167.00000000000003" stroke="#dddddd"/><text x="95" y="173.00000000000003" text-anchor="end" font-family="DejaVu Sans, sans-serif" font-size="16" font-weight="normal">0.09</text><line x1="110" y1="85.0" x2="930" y2="85.0" stroke="#dddddd"/><text x="95" y="91.0" text-anchor="end" font-family="DejaVu Sans, sans-serif" font-size="16" font-weight="normal">0.11</text><rect x="171.66666666666666" y="351.3706252622333" width="150" height="143.62937473776668" fill="#4C78A8"/><line x1="246.66666666666666" y1="350.13230290624017" x2="246.66666666666666" y2="352.6089476182265" stroke="black" stroke-width="3"/><line x1="234.66666666666666" y1="350.13230290624017" x2="258.66666666666663" y2="350.13230290624017" stroke="black" stroke-width="3"/><line x1="234.66666666666666" y1="352.6089476182265" x2="258.66666666666663" y2="352.6089476182265" stroke="black" stroke-width="3"/><text x="246.66666666666666" y="527" text-anchor="middle" font-family="DejaVu Sans, sans-serif" font-size="17" font-weight="normal">GatherOnly + Robust</text><text x="246.66666666666666" y="339.3706252622333" text-anchor="middle" font-family="DejaVu Sans, sans-serif" font-size="16" font-weight="normal">0.0385</text><rect x="445.0" y="138.3411237055605" width="150" height="356.6588762944395" fill="#F58518"/><line x1="520.0" y1="134.86735077605056" x2="520.0" y2="141.8148966350704" stroke="black" stroke-width="3"/><line x1="508.0" y1="134.86735077605056" x2="532.0" y2="134.86735077605056" stroke="black" stroke-width="3"/><line x1="508.0" y1="141.8148966350704" x2="532.0" y2="141.8148966350704" stroke="black" stroke-width="3"/><text x="520.0" y="527" text-anchor="middle" font-family="DejaVu Sans, sans-serif" font-size="17" font-weight="normal">ScatterOnly</text><text x="520.0" y="126.3411237055605" text-anchor="middle" font-family="DejaVu Sans, sans-serif" font-size="16" font-weight="normal">0.0957</text><rect x="718.3333333333334" y="298.7354938685894" width="150" height="196.2645061314106" fill="#54A24B"/><line x1="793.3333333333334" y1="297.07930571954125" x2="793.3333333333334" y2="300.39168201763755" stroke="black" stroke-width="3"/><line x1="781.3333333333334" y1="297.07930571954125" x2="805.3333333333334" y2="297.07930571954125" stroke="black" stroke-width="3"/><line x1="781.3333333333334" y1="300.39168201763755" x2="805.3333333333334" y2="300.39168201763755" stroke="black" stroke-width="3"/><text x="793.3333333333334" y="527" text-anchor="middle" font-family="DejaVu Sans, sans-serif" font-size="17" font-weight="normal">ScatterBackup</text><text x="793.3333333333334" y="286.7354938685894" text-anchor="middle" font-family="DejaVu Sans, sans-serif" font-size="16" font-weight="normal">0.0527</text><line x1="110" y1="481.7915690495548" x2="930" y2="481.7915690495548" stroke="black" stroke-width="2" stroke-dasharray="8,6"/><text x="925" y="473.7915690495548" text-anchor="end" font-family="DejaVu Sans, sans-serif" font-size="15" font-weight="normal">Reference noise floor: 0.0035</text><text x="30" y="290.0" text-anchor="middle" transform="rotate(-90 30 290.0)" font-family="DejaVu Sans, sans-serif" font-size="18" font-weight="bold">Masked log-luminance MAE</text></svg>