<svg xmlns="http://www.w3.org/2000/svg" width="1200" height="720" viewBox="0 0 1200 720"><rect width="100%" height="100%" fill="white"/><text x="600.0" y="48" text-anchor="middle" font-family="DejaVu Sans, sans-serif" font-size="30" font-weight="bold" fill="#222222">Mean GPU Frame Time by Temporal Reuse Mode</text><line x1="125" y1="565.0" x2="1125" y2="565.0" stroke="#666666" stroke-width="1"/><text x="107" y="572.0" text-anchor="end" font-family="DejaVu Sans, sans-serif" font-size="18" font-weight="normal" fill="#222222">0</text><line x1="125" y1="486.6666666666667" x2="1125" y2="486.6666666666667" stroke="#DDDDDD" stroke-width="1"/><text x="107" y="493.6666666666667" text-anchor="end" font-family="DejaVu Sans, sans-serif" font-size="18" font-weight="normal" fill="#222222">1</text><line x1="125" y1="408.33333333333337" x2="1125" y2="408.33333333333337" stroke="#DDDDDD" stroke-width="1"/><text x="107" y="415.33333333333337" text-anchor="end" font-family="DejaVu Sans, sans-serif" font-size="18" font-weight="normal" fill="#222222">2</text><line x1="125" y1="330.0" x2="1125" y2="330.0" stroke="#DDDDDD" stroke-width="1"/><text x="107" y="337.0" text-anchor="end" font-family="DejaVu Sans, sans-serif" font-size="18" font-weight="normal" fill="#222222">3</text><line x1="125" y1="251.66666666666669" x2="1125" y2="251.66666666666669" stroke="#DDDDDD" stroke-width="1"/><text x="107" y="258.6666666666667" text-anchor="end" font-family="DejaVu Sans, sans-serif" font-size="18" font-weight="normal" fill="#222222">4</text><line x1="125" y1="173.33333333333331" x2="1125" y2="173.33333333333331" stroke="#DDDDDD" stroke-width="1"/><text x="107" y="180.33333333333331" text-anchor="end" font-family="DejaVu Sans, sans-serif" font-size="18" font-weight="normal" fill="#222222">5</text><line x1="125" y1="95.0" x2="1125" y2="95.0" stroke="#DDDDDD" stroke-width="1"/><text x="107" y="102.0" text-anchor="end" font-family="DejaVu Sans, sans-serif" font-size="18" font-weight="normal" fill="#222222">6</text><rect x="152.5" y="386.3150632381439" width="145" height="178.68493676185608" rx="4" fill="#9E9E9E"/><line x1="225.0" y1="357.9224949578444" x2="225.0" y2="414.70763151844346" stroke="#222222" stroke-width="3"/><line x1="209.0" y1="357.9224949578444" x2="241.0" y2="357.9224949578444" stroke="#222222" stroke-width="3"/><line x1="209.0" y1="414.70763151844346" x2="241.0" y2="414.70763151844346" stroke="#222222" stroke-width="3"/><text x="225.0" y="343.9224949578444" text-anchor="middle" font-family="DejaVu Sans, sans-serif" font-size="19" font-weight="bold" fill="#222222">2.281 ms</text><text x="225.0" y="599" text-anchor="middle" font-family="DejaVu Sans, sans-serif" font-size="18" font-weight="bold" fill="#222222">No Temporal</text><text x="225.0" y="623" text-anchor="middle" font-family="DejaVu Sans, sans-serif" font-size="18" font-weight="bold" fill="#222222">Reuse</text><rect x="352.5" y="169.4008143742879" width="145" height="395.5991856257121" rx="4" fill="#4C78A8"/><line x1="425.0" y1="143.33160236477852" x2="425.0" y2="195.47002638379735" stroke="#222222" stroke-width="3"/><line x1="409.0" y1="143.33160236477852" x2="441.0" y2="143.33160236477852" stroke="#222222" stroke-width="3"/><line x1="409.0" y1="195.47002638379735" x2="441.0" y2="195.47002638379735" stroke="#222222" stroke-width="3"/><text x="425.0" y="129.33160236477852" text-anchor="middle" font-family="DejaVu Sans, sans-serif" font-size="19" font-weight="bold" fill="#222222">5.050 ms</text><text x="425.0" y="599" text-anchor="middle" font-family="DejaVu Sans, sans-serif" font-size="18" font-weight="bold" fill="#222222">GatherOnly</text><text x="425.0" y="623" text-anchor="middle" font-family="DejaVu Sans, sans-serif" font-size="18" font-weight="bold" fill="#222222">+ Robust</text><rect x="552.5" y="316.84707959493" width="145" height="248.15292040507" rx="4" fill="#F58518"/><line x1="625.0" y1="308.23654166112345" x2="625.0" y2="325.4576175287366" stroke="#222222" stroke-width="3"/><line x1="609.0" y1="308.23654166112345" x2="641.0" y2="308.23654166112345" stroke="#222222" stroke-width="3"/><line x1="609.0" y1="325.4576175287366" x2="641.0" y2="325.4576175287366" stroke="#222222" stroke-width="3"/><text x="625.0" y="294.23654166112345" text-anchor="middle" font-family="DejaVu Sans, sans-serif" font-size="19" font-weight="bold" fill="#222222">3.168 ms</text><text x="625.0" y="599" text-anchor="middle" font-family="DejaVu Sans, sans-serif" font-size="18" font-weight="bold" fill="#222222">ScatterOnly</text><rect x="752.5" y="141.18104457855225" width="145" height="423.81895542144775" rx="4" fill="#E45756"/><line x1="825.0" y1="110.44027611613274" x2="825.0" y2="171.92181304097176" stroke="#222222" stroke-width="3"/><line x1="809.0" y1="110.44027611613274" x2="841.0" y2="110.44027611613274" stroke="#222222" stroke-width="3"/><line x1="809.0" y1="171.92181304097176" x2="841.0" y2="171.92181304097176" stroke="#222222" stroke-width="3"/><text x="825.0" y="96.44027611613274" text-anchor="middle" font-family="DejaVu Sans, sans-serif" font-size="19" font-weight="bold" fill="#222222">5.410 ms</text><text x="825.0" y="599" text-anchor="middle" font-family="DejaVu Sans, sans-serif" font-size="18" font-weight="bold" fill="#222222">ScatterBackup</text><rect x="952.5" y="321.061813433965" width="145" height="243.93818656603497" rx="4" fill="#54A24B"/><line x1="1025.0" y1="312.3648785923918" x2="1025.0" y2="329.75874827553827" stroke="#222222" stroke-width="3"/><line x1="1009.0" y1="312.3648785923918" x2="1041.0" y2="312.3648785923918" stroke="#222222" stroke-width="3"/><line x1="1009.0" y1="329.75874827553827" x2="1041.0" y2="329.75874827553827" stroke="#222222" stroke-width="3"/><text x="1025.0" y="298.3648785923918" text-anchor="middle" font-family="DejaVu Sans, sans-serif" font-size="19" font-weight="bold" fill="#222222">3.114 ms</text><text x="1025.0" y="599" text-anchor="middle" font-family="DejaVu Sans, sans-serif" font-size="18" font-weight="bold" fill="#222222">MultiSplatting</text><text x="34" y="330.0" text-anchor="middle" transform="rotate(-90 34 330.0)" font-family="DejaVu Sans, sans-serif" font-size="21" font-weight="bold" fill="#222222">Mean GPU frame time (ms)</text><text x="600.0" y="690" text-anchor="middle" font-family="DejaVu Sans, sans-serif" font-size="17" font-weight="normal" fill="#555555">Mean +/- 1 standard deviation; falling-sphere experiment, 960x540, 1 spp; n = 68 frames per mode</text></svg>
